<svg width="251" height="338" viewBox="0 0 251 338" fill="none" xmlns="http://www.w3.org/2000/svg">
<path d="M240.975 142.387H224.427M191.33 142.387H174.782M240.975 107.221H160.302C150.02 107.221 141.686 98.8865 141.686 88.6044V9.99997M108.588 9.99997V109.29M42.3963 107.221H9.29926M75.4914 107.221H67.2181M92.04 142.387H67.2181M32.0528 142.387H9.29926M9.29926 181.689H58.9429M58.9429 216.854V241.676M92.04 181.689V241.676M125.137 241.676V142.387H141.686M158.234 175.484V241.676M9.29926 233.402C9.29926 228.832 13.004 225.127 17.5726 225.127C22.143 225.127 25.8478 228.832 25.8478 233.402C25.8478 237.971 22.143 241.676 17.5726 241.676C13.004 241.676 9.29926 237.971 9.29926 233.402ZM9.29926 28.6168V57.5762C9.29926 67.8581 17.634 76.1931 27.9161 76.1931H56.8746C67.1567 76.1931 75.4914 67.8581 75.4914 57.5762V28.6168C75.4914 18.3349 67.1567 9.99997 56.8746 9.99997H27.9161C17.634 9.99997 9.29926 18.3349 9.29926 28.6168ZM222.358 76.1931H193.399C183.117 76.1931 174.782 67.8581 174.782 57.5762V28.6168C174.782 18.3349 183.117 9.99997 193.399 9.99997H222.358C232.64 9.99997 240.975 18.3349 240.975 28.6168V57.5762C240.975 67.8581 232.64 76.1931 222.358 76.1931ZM209.947 241.676H222.358C232.64 241.676 240.975 233.341 240.975 223.059V194.1C240.975 183.818 232.64 175.484 222.358 175.484H209.947C199.665 175.484 191.33 183.818 191.33 194.1V223.059C191.33 233.341 199.665 241.676 209.947 241.676Z" stroke="white" stroke-width="18.4155" stroke-linecap="round" stroke-linejoin="round"/>
<path d="M39.6153 314.193C42.4095 310.467 44.1481 305.748 44.1481 300.657C44.1481 288.673 34.772 278.924 23.2849 278.924C11.7977 278.924 2.48372 288.673 2.48372 300.657C2.48372 312.64 11.7977 322.389 23.2849 322.389C27.3209 322.389 31.1086 321.209 34.2753 319.098L35.8897 321.085C36.6348 321.954 37.6904 322.389 38.6839 322.389C39.4911 322.389 40.3604 322.141 41.0434 321.52C41.8506 320.837 42.3474 319.781 42.3474 318.726C42.3474 317.918 42.0369 317.111 41.4781 316.428L39.6153 314.193ZM23.2849 315.124C15.8337 315.124 9.74859 308.667 9.74859 300.657C9.74859 292.647 15.8337 286.189 23.2849 286.189C30.7981 286.189 36.8832 292.647 36.8832 300.657C36.8832 303.513 36.1381 306.183 34.772 308.418L32.4125 305.562C31.7295 304.755 30.6739 304.258 29.6183 304.258C28.8111 304.258 28.0039 304.568 27.3209 305.127C26.4516 305.81 26.0169 306.804 26.0169 307.859C26.0169 308.667 26.3274 309.536 26.8862 310.219L29.6183 313.51C27.6935 314.565 25.5823 315.124 23.2849 315.124ZM78.9808 306.183C81.2782 304.941 83.141 303.016 84.445 300.47C86.1215 297.117 86.1836 293.764 86.1836 293.392C86.1836 287.555 83.5136 283.084 78.6703 280.663C75.2552 278.986 71.9643 278.924 71.5917 278.924H61.7189C59.732 278.924 58.1175 280.538 58.1175 282.525V318.788C58.1175 320.775 59.732 322.389 61.7189 322.389C63.7059 322.389 65.3824 320.775 65.3824 318.788V307.921H71.4675L79.4775 320.713C80.1605 321.768 81.3403 322.389 82.5822 322.389C83.2031 322.389 83.8861 322.203 84.445 321.83C85.5626 321.147 86.1836 319.967 86.1836 318.788C86.1836 318.105 85.9973 317.484 85.6247 316.863L78.9808 306.183ZM65.3824 286.189H71.5917C71.5917 286.189 73.5787 286.189 75.4415 287.12C77.801 288.3 78.9187 290.287 78.9187 293.392C78.9187 293.516 78.8566 295.503 77.8631 297.366C76.6833 299.601 74.6964 300.657 71.5917 300.657H65.3824V286.189ZM114.45 295.317C112.028 294.323 109.669 293.205 109.669 290.163V289.914C109.731 287.679 112.09 286.127 115.133 286.127H115.505C116.623 286.189 117.865 286.624 118.796 287.369C119.479 287.865 120.225 288.052 120.97 288.052C122.087 288.052 123.143 287.555 123.888 286.624C124.385 286.003 124.633 285.195 124.633 284.45C124.633 283.395 124.136 282.339 123.205 281.594C121.032 279.98 118.362 278.924 115.754 278.862H115.195C111.966 278.862 108.924 279.917 106.688 281.656C104.018 283.643 102.59 286.499 102.466 289.666V290.163C102.466 295.751 105.695 299.787 112.09 302.085L112.339 302.209C114.698 302.892 120.1 305.438 120.287 308.294V308.542C120.287 310.219 119.604 311.771 118.362 313.013C117.058 314.317 115.257 315 113.084 315H112.773C110.228 314.938 108.116 313.572 107.123 311.399C106.502 310.033 105.136 309.287 103.77 309.287C103.273 309.287 102.776 309.35 102.28 309.598C100.914 310.219 100.169 311.523 100.169 312.889C100.169 313.386 100.231 313.944 100.479 314.441C102.652 319.098 107.247 322.079 112.525 322.265H113.022C117.12 322.265 120.845 320.775 123.578 318.043C126.061 315.559 127.489 312.144 127.489 308.542V307.921C127.117 299.353 116.313 295.875 114.45 295.317ZM145.033 322.389C147.02 322.389 148.634 320.775 148.634 318.788V282.525C148.634 280.538 147.02 278.924 145.033 278.924C143.046 278.924 141.431 280.538 141.431 282.525V318.788C141.431 320.775 143.046 322.389 145.033 322.389ZM184.355 322.389C189.882 322.389 195.47 320.278 199.692 316.056C200.375 315.373 200.748 314.441 200.748 313.448V300.657C200.748 298.67 199.134 297.055 197.147 297.055H184.48C182.493 297.055 180.816 298.67 180.816 300.657C180.816 302.643 182.493 304.258 184.48 304.258H193.545V311.895C190.875 314.069 187.646 315.186 184.355 315.186C180.63 315.186 176.904 313.758 174.11 310.902C171.378 308.17 169.826 304.506 169.826 300.657C169.826 296.807 171.378 293.143 174.11 290.411C176.842 287.679 180.444 286.189 184.355 286.189C188.205 286.189 191.869 287.679 194.601 290.411C195.284 291.156 196.215 291.467 197.147 291.467C198.078 291.467 198.947 291.156 199.692 290.411C200.437 289.666 200.748 288.735 200.748 287.803C200.748 286.872 200.437 286.003 199.754 285.32C195.594 281.159 190.13 278.924 184.355 278.924C178.519 278.924 173.054 281.159 168.956 285.32C164.858 289.418 162.623 294.882 162.623 300.657C162.623 306.493 164.858 311.957 168.956 316.056C173.179 320.278 178.767 322.389 184.355 322.389ZM243.737 322.389C245.724 322.389 247.339 320.713 247.339 318.788V282.525C247.339 280.538 245.724 278.924 243.737 278.924C241.688 278.924 240.074 280.538 240.074 282.525V307.3L221.322 280.476C220.639 279.483 219.521 278.924 218.403 278.924C216.23 278.924 214.74 280.663 214.74 282.525V318.788C214.74 320.775 216.354 322.389 218.341 322.389C220.328 322.389 222.005 320.775 222.005 318.788V294.013L240.757 320.837C241.44 321.83 242.557 322.389 243.737 322.389Z" fill="white"/>
<path d="M39.6153 314.193L37.8225 312.848L36.7591 314.266L37.8937 315.627L39.6153 314.193ZM34.2753 319.098L36.0146 317.685L34.7288 316.102L33.0322 317.233L34.2753 319.098ZM35.8897 321.085L34.1504 322.498L34.169 322.521L34.1882 322.544L35.8897 321.085ZM41.0434 321.52L39.5958 319.809L39.5654 319.835L39.5359 319.862L41.0434 321.52ZM41.4781 316.428L43.2126 315.009L43.2062 315.001L43.1997 314.993L41.4781 316.428ZM34.772 308.418L33.0443 309.845L35.0457 312.268L36.6843 309.587L34.772 308.418ZM32.4125 305.562L34.1403 304.135L34.1319 304.124L34.1233 304.114L32.4125 305.562ZM27.3209 305.127L28.7055 306.889L28.7229 306.876L28.74 306.862L27.3209 305.127ZM26.8862 310.219L25.1518 311.638L25.1568 311.644L25.162 311.65L26.8862 310.219ZM29.6183 313.51L30.6959 315.475L33.0779 314.168L31.3426 312.078L29.6183 313.51ZM41.4081 315.537C44.4757 311.447 46.3891 306.261 46.3891 300.657H41.907C41.907 305.235 40.3432 309.487 37.8225 312.848L41.4081 315.537ZM46.3891 300.657C46.3891 287.521 36.0939 276.683 23.2849 276.683V281.165C33.4502 281.165 41.907 289.824 41.907 300.657H46.3891ZM23.2849 276.683C10.4673 276.683 0.242666 287.53 0.242666 300.657H4.72477C4.72477 289.816 13.128 281.165 23.2849 281.165V276.683ZM0.242666 300.657C0.242666 313.783 10.4673 324.63 23.2849 324.63V320.148C13.128 320.148 4.72477 311.497 4.72477 300.657H0.242666ZM23.2849 324.63C27.7626 324.63 31.9829 323.32 35.5184 320.963L33.0322 317.233C30.2342 319.099 26.8792 320.148 23.2849 320.148V324.63ZM32.536 320.511L34.1504 322.498L37.629 319.672L36.0146 317.685L32.536 320.511ZM34.1882 322.544C35.3737 323.927 37.059 324.63 38.6839 324.63V320.148C38.3218 320.148 37.896 319.982 37.5913 319.627L34.1882 322.544ZM38.6839 324.63C39.9291 324.63 41.3748 324.247 42.5509 323.178L39.5359 319.862C39.3461 320.034 39.0531 320.148 38.6839 320.148V324.63ZM42.491 323.231C43.7933 322.129 44.5884 320.451 44.5884 318.726H40.1063C40.1063 319.111 39.908 319.545 39.5958 319.809L42.491 323.231ZM44.5884 318.726C44.5884 317.339 44.0571 316.041 43.2126 315.009L39.7436 317.847C40.0168 318.181 40.1063 318.498 40.1063 318.726H44.5884ZM43.1997 314.993L41.3369 312.758L37.8937 315.627L39.7565 317.863L43.1997 314.993ZM23.2849 312.883C17.205 312.883 11.9896 307.567 11.9896 300.657H7.50754C7.50754 309.766 14.4624 317.365 23.2849 317.365V312.883ZM11.9896 300.657C11.9896 293.746 17.205 288.43 23.2849 288.43V283.948C14.4624 283.948 7.50754 291.547 7.50754 300.657H11.9896ZM23.2849 288.43C29.4332 288.43 34.6422 293.753 34.6422 300.657H39.1243C39.1243 291.54 32.163 283.948 23.2849 283.948V288.43ZM34.6422 300.657C34.6422 303.122 33.9996 305.384 32.8598 307.25L36.6843 309.587C38.2766 306.981 39.1243 303.903 39.1243 300.657H34.6422ZM36.4998 306.991L34.1403 304.135L30.6848 306.989L33.0443 309.845L36.4998 306.991ZM34.1233 304.114C33.0214 302.812 31.3438 302.017 29.6183 302.017V306.499C30.0041 306.499 30.4376 306.697 30.7017 307.009L34.1233 304.114ZM29.6183 302.017C28.2313 302.017 26.934 302.548 25.9018 303.393L28.74 306.862C29.0739 306.589 29.391 306.499 29.6183 306.499V302.017ZM25.9363 303.365C24.4857 304.505 23.7759 306.169 23.7759 307.859H28.258C28.258 307.438 28.4175 307.116 28.7055 306.889L25.9363 303.365ZM23.7759 307.859C23.7759 309.207 24.2805 310.573 25.1518 311.638L28.6207 308.8C28.3744 308.499 28.258 308.126 28.258 307.859H23.7759ZM25.162 311.65L27.894 314.941L31.3426 312.078L28.6105 308.787L25.162 311.65ZM28.5408 311.545C26.9432 312.421 25.2023 312.883 23.2849 312.883V317.365C25.9623 317.365 28.4437 316.71 30.6959 315.475L28.5408 311.545ZM78.9808 306.183L77.9151 304.211L75.8197 305.344L77.0779 307.367L78.9808 306.183ZM84.445 300.47L86.4396 301.492L86.4445 301.482L86.4494 301.472L84.445 300.47ZM78.6703 280.663L79.6725 278.658L79.6652 278.654L79.6579 278.651L78.6703 280.663ZM65.3824 307.921V305.68H63.1414V307.921H65.3824ZM71.4675 307.921L73.3669 306.732L72.7084 305.68H71.4675V307.921ZM79.4775 320.713L77.5781 321.902L77.587 321.916L77.596 321.93L79.4775 320.713ZM84.445 321.83L83.2764 319.918L83.2386 319.941L83.2018 319.966L84.445 321.83ZM85.6247 316.863L87.5464 315.71L87.5371 315.694L87.5276 315.679L85.6247 316.863ZM65.3824 286.189V283.948H63.1414V286.189H65.3824ZM75.4415 287.12L76.4437 285.116L75.4415 287.12ZM77.8631 297.366L75.8857 296.311L75.8811 296.32L77.8631 297.366ZM65.3824 300.657H63.1414V302.898H65.3824V300.657ZM80.0464 308.154C82.7686 306.683 84.9431 304.414 86.4396 301.492L82.4503 299.449C81.3389 301.618 79.7879 303.199 77.9151 304.211L80.0464 308.154ZM86.4494 301.472C88.3543 297.663 88.4246 293.901 88.4246 293.392H83.9425C83.9425 293.627 83.8886 296.572 82.4405 299.468L86.4494 301.472ZM88.4246 293.392C88.4246 286.774 85.3338 281.489 79.6725 278.658L77.6681 282.667C81.6933 284.68 83.9425 288.336 83.9425 293.392H88.4246ZM79.6579 278.651C75.7994 276.757 72.1134 276.683 71.5917 276.683V281.165C71.8152 281.165 74.711 281.215 77.6827 282.674L79.6579 278.651ZM71.5917 276.683H61.7189V281.165H71.5917V276.683ZM61.7189 276.683C58.4943 276.683 55.8765 279.301 55.8765 282.525H60.3586C60.3586 281.776 60.9697 281.165 61.7189 281.165V276.683ZM55.8765 282.525V318.788H60.3586V282.525H55.8765ZM55.8765 318.788C55.8765 322.012 58.4943 324.63 61.7189 324.63V320.148C60.9697 320.148 60.3586 319.537 60.3586 318.788H55.8765ZM61.7189 324.63C64.8936 324.63 67.6235 322.062 67.6235 318.788H63.1414C63.1414 319.488 62.5182 320.148 61.7189 320.148V324.63ZM67.6235 318.788V307.921H63.1414V318.788H67.6235ZM65.3824 310.162H71.4675V305.68H65.3824V310.162ZM69.5682 309.111L77.5781 321.902L81.3769 319.523L73.3669 306.732L69.5682 309.111ZM77.596 321.93C78.7031 323.641 80.6008 324.63 82.5822 324.63V320.148C82.0799 320.148 81.618 319.895 81.359 319.495L77.596 321.93ZM82.5822 324.63C83.6161 324.63 84.7374 324.329 85.6881 323.695L83.2018 319.966C83.0349 320.077 82.79 320.148 82.5822 320.148V324.63ZM85.6135 323.742C87.4019 322.65 88.4246 320.743 88.4246 318.788H83.9425C83.9425 319.192 83.7234 319.645 83.2764 319.918L85.6135 323.742ZM88.4246 318.788C88.4246 317.655 88.1042 316.639 87.5464 315.71L83.703 318.016C83.8904 318.328 83.9425 318.555 83.9425 318.788H88.4246ZM87.5276 315.679L80.8837 304.999L77.0779 307.367L83.7218 318.047L87.5276 315.679ZM65.3824 288.43H71.5917V283.948H65.3824V288.43ZM71.5917 286.189C71.5917 288.43 71.5912 288.43 71.5907 288.43C71.5906 288.43 71.5901 288.43 71.5898 288.43C71.5891 288.43 71.5885 288.43 71.588 288.43C71.5868 288.43 71.5858 288.43 71.5849 288.43C71.5831 288.43 71.5817 288.43 71.5808 288.43C71.5789 288.43 71.5789 288.43 71.5805 288.43C71.5838 288.43 71.594 288.43 71.6104 288.431C71.6434 288.432 71.7013 288.434 71.7802 288.439C71.9389 288.45 72.1771 288.472 72.4649 288.518C73.0552 288.613 73.7781 288.794 74.4392 289.125L76.4437 285.116C75.242 284.515 74.0401 284.231 73.1712 284.092C72.7294 284.022 72.3545 283.986 72.0824 283.967C71.9459 283.958 71.834 283.953 71.751 283.951C71.7095 283.949 71.6751 283.949 71.6484 283.948C71.6351 283.948 71.6236 283.948 71.6142 283.948C71.6094 283.948 71.6052 283.948 71.6014 283.948C71.5996 283.948 71.5978 283.948 71.5962 283.948C71.5954 283.948 71.5946 283.948 71.5939 283.948C71.5935 283.948 71.5929 283.948 71.5928 283.948C71.5922 283.948 71.5917 283.948 71.5917 286.189ZM74.4392 289.125C75.2756 289.543 75.7821 290.041 76.1066 290.624C76.4446 291.231 76.6776 292.1 76.6776 293.392H81.1597C81.1597 291.578 80.8339 289.902 80.0232 288.445C79.199 286.963 77.9669 285.877 76.4437 285.116L74.4392 289.125ZM76.6776 293.392C76.6776 293.353 76.63 294.915 75.8857 296.311L79.8405 298.42C81.0832 296.09 81.1597 293.678 81.1597 293.392H76.6776ZM75.8811 296.32C75.4782 297.083 74.9944 297.556 74.4055 297.866C73.7869 298.192 72.9007 298.415 71.5917 298.415V302.898C73.3874 302.898 75.047 302.594 76.493 301.832C77.9687 301.056 79.0682 299.884 79.8451 298.412L75.8811 296.32ZM71.5917 298.415H65.3824V302.898H71.5917V298.415ZM67.6235 300.657V286.189H63.1414V300.657H67.6235ZM114.45 295.317L113.599 297.39L113.701 297.432L113.806 297.463L114.45 295.317ZM109.669 289.914L107.429 289.852L107.428 289.883V289.914H109.669ZM115.505 286.127L115.63 283.889L115.568 283.886H115.505V286.127ZM118.796 287.369L117.396 289.119L117.437 289.151L117.478 289.181L118.796 287.369ZM123.888 286.624L125.638 288.023L123.888 286.624ZM123.205 281.594L124.605 279.844L124.574 279.819L124.541 279.795L123.205 281.594ZM115.754 278.862L115.807 276.621L115.781 276.621H115.754V278.862ZM106.688 281.656L108.026 283.454L108.045 283.44L108.064 283.425L106.688 281.656ZM102.466 289.666L100.227 289.578L100.225 289.622V289.666H102.466ZM112.09 302.085L113.093 300.08L112.973 300.021L112.848 299.976L112.09 302.085ZM112.339 302.209L111.337 304.213L111.519 304.305L111.716 304.362L112.339 302.209ZM120.287 308.294H122.528V308.221L122.523 308.148L120.287 308.294ZM118.362 313.013L116.777 311.428L118.362 313.013ZM112.773 315L112.719 317.24L112.746 317.241H112.773V315ZM107.123 311.399L105.083 312.326L105.085 312.33L107.123 311.399ZM102.28 309.598L103.207 311.638L103.245 311.621L103.282 311.602L102.28 309.598ZM100.479 314.441L102.51 313.493L102.497 313.466L102.483 313.439L100.479 314.441ZM112.525 322.265L112.446 324.505L112.485 324.506H112.525V322.265ZM123.578 318.043L125.162 319.627L123.578 318.043ZM127.489 307.921H129.73V307.873L129.728 307.824L127.489 307.921ZM115.301 293.243C114.06 292.734 113.203 292.328 112.63 291.824C112.181 291.43 111.91 290.986 111.91 290.163H107.428C107.428 292.382 108.336 294.019 109.672 295.192C110.884 296.256 112.418 296.905 113.599 297.39L115.301 293.243ZM111.91 290.163V289.914H107.428V290.163H111.91ZM111.909 289.977C111.916 289.716 112.038 289.381 112.547 289.033C113.082 288.668 113.969 288.368 115.133 288.368V283.886C113.255 283.886 111.441 284.362 110.02 285.331C108.573 286.319 107.483 287.878 107.429 289.852L111.909 289.977ZM115.133 288.368H115.505V283.886H115.133V288.368ZM115.381 288.364C116.068 288.403 116.855 288.686 117.396 289.119L120.196 285.619C118.875 284.561 117.178 283.975 115.63 283.889L115.381 288.364ZM117.478 289.181C118.605 290.001 119.832 290.293 120.97 290.293V285.811C120.617 285.811 120.354 285.73 120.115 285.556L117.478 289.181ZM120.97 290.293C122.778 290.293 124.474 289.479 125.638 288.023L122.138 285.224C121.812 285.631 121.396 285.811 120.97 285.811V290.293ZM125.638 288.023C126.483 286.967 126.874 285.654 126.874 284.45H122.392C122.392 284.737 122.287 285.038 122.138 285.224L125.638 288.023ZM126.874 284.45C126.874 282.684 126.044 280.995 124.605 279.844L121.805 283.344C122.229 283.683 122.392 284.106 122.392 284.45H126.874ZM124.541 279.795C122.066 277.956 118.958 276.697 115.807 276.621L115.701 281.102C117.765 281.151 119.997 282.003 121.869 283.393L124.541 279.795ZM115.754 276.621H115.195V281.103H115.754V276.621ZM115.195 276.621C111.496 276.621 107.963 277.826 105.312 279.887L108.064 283.425C109.885 282.009 112.436 281.103 115.195 281.103V276.621ZM105.35 279.858C102.122 282.261 100.377 285.753 100.227 289.578L104.705 289.754C104.804 287.245 105.914 285.025 108.026 283.454L105.35 279.858ZM100.225 289.666V290.163H104.707V289.666H100.225ZM100.225 290.163C100.225 293.419 101.177 296.334 103.135 298.764C105.069 301.165 107.866 302.948 111.333 304.194L112.848 299.976C109.919 298.923 107.904 297.54 106.625 295.952C105.369 294.393 104.707 292.495 104.707 290.163H100.225ZM111.088 304.089L111.337 304.213L113.341 300.204L113.093 300.08L111.088 304.089ZM111.716 304.362C112.698 304.646 114.436 305.365 115.911 306.318C116.645 306.793 117.227 307.27 117.611 307.71C118.009 308.165 118.048 308.407 118.05 308.44L122.523 308.148C122.432 306.752 121.726 305.606 120.985 304.759C120.23 303.896 119.279 303.159 118.344 302.554C116.482 301.35 114.339 300.455 112.962 300.056L111.716 304.362ZM118.046 308.294V308.542H122.528V308.294H118.046ZM118.046 308.542C118.046 309.574 117.636 310.57 116.777 311.428L119.946 314.598C121.571 312.973 122.528 310.864 122.528 308.542H118.046ZM116.777 311.428C115.964 312.242 114.77 312.759 113.084 312.759V317.241C115.744 317.241 118.152 316.392 119.946 314.598L116.777 311.428ZM113.084 312.759H112.773V317.241H113.084V312.759ZM112.828 312.76C111.09 312.717 109.778 311.816 109.161 310.467L105.085 312.33C106.455 315.327 109.365 317.159 112.719 317.24L112.828 312.76ZM109.163 310.471C108.139 308.217 105.914 307.046 103.77 307.046V311.528C104.358 311.528 104.865 311.848 105.083 312.326L109.163 310.471ZM103.77 307.046C103.082 307.046 102.2 307.132 101.277 307.593L103.282 311.602C103.352 311.567 103.464 311.528 103.77 311.528V307.046ZM101.352 307.558C99.1354 308.565 97.9275 310.701 97.9275 312.889H102.41C102.41 312.344 102.692 311.872 103.207 311.638L101.352 307.558ZM97.9275 312.889C97.9275 313.537 98.0016 314.498 98.4745 315.443L102.483 313.439C102.476 313.423 102.455 313.375 102.438 313.276C102.42 313.175 102.41 313.048 102.41 312.889H97.9275ZM98.4482 315.389C100.991 320.837 106.358 324.29 112.446 324.505L112.604 320.025C108.137 319.868 104.314 317.359 102.51 313.493L98.4482 315.389ZM112.525 324.506H113.022V320.024H112.525V324.506ZM113.022 324.506C117.674 324.506 121.982 322.807 125.162 319.627L121.993 316.458C119.709 318.742 116.566 320.024 113.022 320.024V324.506ZM125.162 319.627C128.068 316.722 129.73 312.736 129.73 308.542H125.248C125.248 311.551 124.055 314.396 121.993 316.458L125.162 319.627ZM129.73 308.542V307.921H125.248V308.542H129.73ZM129.728 307.824C129.497 302.509 126.022 298.943 122.782 296.757C119.519 294.557 116.094 293.47 115.094 293.17L113.806 297.463C114.668 297.722 117.577 298.653 120.275 300.473C122.996 302.308 125.109 304.765 125.25 308.019L129.728 307.824ZM145.033 324.63C148.257 324.63 150.875 322.012 150.875 318.788H146.393C146.393 319.537 145.782 320.148 145.033 320.148V324.63ZM150.875 318.788V282.525H146.393V318.788H150.875ZM150.875 282.525C150.875 279.301 148.257 276.683 145.033 276.683V281.165C145.782 281.165 146.393 281.776 146.393 282.525H150.875ZM145.033 276.683C141.808 276.683 139.19 279.301 139.19 282.525H143.672C143.672 281.776 144.283 281.165 145.033 281.165V276.683ZM139.19 282.525V318.788H143.672V282.525H139.19ZM139.19 318.788C139.19 322.012 141.808 324.63 145.033 324.63V320.148C144.283 320.148 143.672 319.537 143.672 318.788H139.19ZM199.692 316.056L201.277 317.64L201.277 317.64L199.692 316.056ZM193.545 304.258H195.786V302.017H193.545V304.258ZM193.545 311.895L194.96 313.633L195.786 312.961V311.895H193.545ZM174.11 310.902L175.712 309.335L175.703 309.326L175.695 309.317L174.11 310.902ZM174.11 290.411L172.525 288.827L174.11 290.411ZM194.601 290.411L196.253 288.897L196.22 288.861L196.185 288.827L194.601 290.411ZM199.692 290.411L198.108 288.827V288.827L199.692 290.411ZM199.754 285.32L198.17 286.904V286.904L199.754 285.32ZM168.956 285.32L170.541 286.904L170.547 286.898L170.553 286.892L168.956 285.32ZM168.956 316.056L167.372 317.64L168.956 316.056ZM184.355 324.63C190.446 324.63 196.614 322.303 201.277 317.64L198.108 314.471C194.326 318.252 189.317 320.148 184.355 320.148V324.63ZM201.277 317.64C202.401 316.516 202.989 315.006 202.989 313.448H198.507C198.507 313.877 198.35 314.229 198.108 314.471L201.277 317.64ZM202.989 313.448V300.657H198.507V313.448H202.989ZM202.989 300.657C202.989 297.432 200.371 294.814 197.147 294.814V299.296C197.896 299.296 198.507 299.907 198.507 300.657H202.989ZM197.147 294.814H184.48V299.296H197.147V294.814ZM184.48 294.814C181.305 294.814 178.575 297.382 178.575 300.657H183.057C183.057 299.957 183.68 299.296 184.48 299.296V294.814ZM178.575 300.657C178.575 303.931 181.305 306.499 184.48 306.499V302.017C183.68 302.017 183.057 301.356 183.057 300.657H178.575ZM184.48 306.499H193.545V302.017H184.48V306.499ZM191.304 304.258V311.895H195.786V304.258H191.304ZM192.13 310.157C189.861 312.004 187.132 312.945 184.355 312.945V317.427C188.16 317.427 191.889 316.133 194.96 313.633L192.13 310.157ZM184.355 312.945C181.2 312.945 178.062 311.737 175.712 309.335L172.508 312.469C175.746 315.779 180.06 317.427 184.355 317.427V312.945ZM175.695 309.317C173.372 306.995 172.067 303.897 172.067 300.657H167.585C167.585 305.116 169.384 309.345 172.525 312.487L175.695 309.317ZM172.067 300.657C172.067 297.416 173.372 294.318 175.695 291.996L172.525 288.827C169.384 291.968 167.585 296.198 167.585 300.657H172.067ZM175.695 291.996C178.003 289.687 181.033 288.43 184.355 288.43V283.948C179.854 283.948 175.681 285.671 172.525 288.827L175.695 291.996ZM184.355 288.43C187.621 288.43 190.711 289.691 193.016 291.996L196.185 288.827C193.026 285.667 188.79 283.948 184.355 283.948V288.43ZM192.949 291.926C194.141 293.226 195.724 293.708 197.147 293.708V289.226C196.707 289.226 196.427 289.087 196.253 288.897L192.949 291.926ZM197.147 293.708C198.632 293.708 200.084 293.189 201.277 291.996L198.108 288.827C197.81 289.124 197.524 289.226 197.147 289.226V293.708ZM201.277 291.996C202.496 290.776 202.989 289.248 202.989 287.803H198.507C198.507 288.221 198.378 288.556 198.108 288.827L201.277 291.996ZM202.989 287.803C202.989 286.35 202.491 284.887 201.339 283.735L198.17 286.904C198.384 287.118 198.507 287.394 198.507 287.803H202.989ZM201.339 283.735C196.758 279.153 190.723 276.683 184.355 276.683V281.165C189.537 281.165 194.431 283.165 198.17 286.904L201.339 283.735ZM184.355 276.683C177.932 276.683 171.889 279.149 167.36 283.747L170.553 286.892C174.22 283.169 179.105 281.165 184.355 281.165V276.683ZM167.372 283.735C162.849 288.258 160.382 294.294 160.382 300.657H164.864C164.864 295.47 166.868 290.578 170.541 286.904L167.372 283.735ZM160.382 300.657C160.382 307.078 162.846 313.115 167.372 317.64L170.541 314.471C166.87 310.8 164.864 305.909 164.864 300.657H160.382ZM167.372 317.64C172.037 322.306 178.206 324.63 184.355 324.63V320.148C179.328 320.148 174.32 318.25 170.541 314.471L167.372 317.64ZM240.074 307.3L238.237 308.584L242.315 314.418V307.3H240.074ZM221.322 280.476L219.475 281.746L219.48 281.753L219.485 281.76L221.322 280.476ZM222.005 294.013L223.841 292.729L219.764 286.895V294.013H222.005ZM240.757 320.837L242.603 319.567L242.598 319.56L242.593 319.553L240.757 320.837ZM243.737 324.63C246.987 324.63 249.58 321.925 249.58 318.788H245.097C245.097 319.5 244.461 320.148 243.737 320.148V324.63ZM249.58 318.788V282.525H245.097V318.788H249.58ZM249.58 282.525C249.58 279.301 246.962 276.683 243.737 276.683V281.165C244.486 281.165 245.097 281.776 245.097 282.525H249.58ZM243.737 276.683C240.475 276.683 237.833 279.276 237.833 282.525H242.315C242.315 281.801 242.901 281.165 243.737 281.165V276.683ZM237.833 282.525V307.3H242.315V282.525H237.833ZM241.91 306.016L223.158 279.192L219.485 281.76L238.237 308.584L241.91 306.016ZM223.168 279.207C222.063 277.599 220.251 276.683 218.403 276.683V281.165C218.791 281.165 219.214 281.367 219.475 281.746L223.168 279.207ZM218.403 276.683C214.918 276.683 212.499 279.501 212.499 282.525H216.981C216.981 281.825 217.542 281.165 218.403 281.165V276.683ZM212.499 282.525V318.788H216.981V282.525H212.499ZM212.499 318.788C212.499 322.012 215.116 324.63 218.341 324.63V320.148C217.592 320.148 216.981 319.537 216.981 318.788H212.499ZM218.341 324.63C221.516 324.63 224.246 322.062 224.246 318.788H219.764C219.764 319.488 219.14 320.148 218.341 320.148V324.63ZM224.246 318.788V294.013H219.764V318.788H224.246ZM220.168 295.297L238.92 322.121L242.593 319.553L223.841 292.729L220.168 295.297ZM238.91 322.106C240.027 323.732 241.849 324.63 243.737 324.63V320.148C243.266 320.148 242.852 319.929 242.603 319.567L238.91 322.106Z" fill="white"/>
</svg>
