<svg width="318" height="57" viewBox="0 0 318 57" fill="none" xmlns="http://www.w3.org/2000/svg">
<path d="M48.3906 46.3675C52.0154 41.5345 54.2708 35.4127 54.2708 28.8076C54.2708 13.2616 42.1078 0.615277 27.2061 0.615277C12.3044 0.615277 0.221984 13.2616 0.221984 28.8076C0.221984 44.3537 12.3044 57 27.2061 57C32.4418 57 37.3554 55.4696 41.4634 52.7309L43.5577 55.3085C44.5243 56.4362 45.8936 57 47.1824 57C48.2295 57 49.3572 56.6778 50.2433 55.8723C51.2904 54.9863 51.9348 53.6169 51.9348 52.2476C51.9348 51.2004 51.5321 50.1533 50.8071 49.2672L48.3906 46.3675ZM27.2061 47.5757C17.5401 47.5757 9.64629 39.1985 9.64629 28.8076C9.64629 18.4167 17.5401 10.0396 27.2061 10.0396C36.9526 10.0396 44.8465 18.4167 44.8465 28.8076C44.8465 32.5129 43.8799 35.9766 42.1078 38.8763L39.0469 35.1711C38.1608 34.1239 36.7915 33.4795 35.4222 33.4795C34.375 33.4795 33.3279 33.8823 32.4418 34.6072C31.3141 35.4933 30.7503 36.782 30.7503 38.1514C30.7503 39.1985 31.153 40.3262 31.878 41.2123L35.4222 45.4814C32.9251 46.8508 30.1864 47.5757 27.2061 47.5757ZM99.4572 35.9766C102.438 34.3656 104.854 31.8685 106.546 28.566C108.72 24.2163 108.801 19.8666 108.801 19.3833C108.801 11.8117 105.337 6.0121 99.0545 2.87067C94.6242 0.695826 90.3551 0.615277 89.8718 0.615277H77.0644C74.4868 0.615277 72.3925 2.70957 72.3925 5.28716V52.3281C72.3925 54.9057 74.4868 57 77.0644 57C79.642 57 81.8168 54.9057 81.8168 52.3281V38.2319H89.7107L100.102 54.8252C100.988 56.1945 102.518 57 104.129 57C104.935 57 105.821 56.7584 106.546 56.2751C107.995 55.389 108.801 53.8586 108.801 52.3281C108.801 51.4421 108.559 50.6366 108.076 49.8311L99.4572 35.9766ZM81.8168 10.0396H89.8718C89.8718 10.0396 92.4494 10.0396 94.8659 11.2478C97.9268 12.7783 99.3767 15.3559 99.3767 19.3833C99.3767 19.5444 99.2961 22.122 98.0073 24.5385C96.4769 27.4383 93.8993 28.8076 89.8718 28.8076H81.8168V10.0396ZM145.469 21.8804C142.328 20.5916 139.267 19.1417 139.267 15.1948V14.8726C139.348 11.9728 142.408 9.95903 146.355 9.95903H146.839C148.289 10.0396 149.899 10.6034 151.108 11.57C151.994 12.2144 152.96 12.4561 153.927 12.4561C155.377 12.4561 156.746 11.8117 157.713 10.6034C158.357 9.79793 158.679 8.75079 158.679 7.7842C158.679 6.41485 158.035 5.04551 156.827 4.07891C154.008 1.98462 150.544 0.615277 147.161 0.534729H146.436C142.247 0.534729 138.3 1.90407 135.401 4.15946C131.937 6.73705 130.084 10.4423 129.923 14.5504V15.1948C129.923 22.4442 134.112 27.6799 142.408 30.6603L142.731 30.8214C145.791 31.7074 152.799 35.01 153.041 38.7152V39.0374C153.041 41.2123 152.155 43.226 150.544 44.837C148.852 46.5286 146.516 47.4146 143.697 47.4146H143.294C139.992 47.334 137.253 45.562 135.964 42.7427C135.159 40.9706 133.387 40.004 131.615 40.004C130.97 40.004 130.326 40.0846 129.682 40.4068C127.909 41.2123 126.943 42.9038 126.943 44.6759C126.943 45.3203 127.023 46.0453 127.346 46.6897C130.165 52.7309 136.126 56.5973 142.972 56.8389H143.617C148.933 56.8389 153.766 54.9057 157.31 51.3615C160.532 48.1395 162.385 43.7093 162.385 39.0374V38.2319C161.901 27.1161 147.886 22.6053 145.469 21.8804ZM185.142 57C187.72 57 189.814 54.9057 189.814 52.3281V5.28716C189.814 2.70957 187.72 0.615277 185.142 0.615277C182.565 0.615277 180.471 2.70957 180.471 5.28716V52.3281C180.471 54.9057 182.565 57 185.142 57ZM236.154 57C243.323 57 250.572 54.2613 256.049 48.7839C256.935 47.8979 257.419 46.6897 257.419 45.4009V28.8076C257.419 26.2301 255.324 24.1358 252.747 24.1358H236.315C233.737 24.1358 231.562 26.2301 231.562 28.8076C231.562 31.3852 233.737 33.4795 236.315 33.4795H248.075V43.3871C244.611 46.2064 240.423 47.6562 236.154 47.6562C231.321 47.6562 226.488 45.8036 222.863 42.0983C219.319 38.5541 217.305 33.8017 217.305 28.8076C217.305 23.8136 219.319 19.0611 222.863 15.517C226.407 11.9728 231.079 10.0396 236.154 10.0396C241.148 10.0396 245.9 11.9728 249.444 15.517C250.33 16.4836 251.539 16.8863 252.747 16.8863C253.955 16.8863 255.083 16.4836 256.049 15.517C257.016 14.5504 257.419 13.3421 257.419 12.1339C257.419 10.9256 257.016 9.79793 256.13 8.91189C250.733 3.51506 243.645 0.615277 236.154 0.615277C228.582 0.615277 221.494 3.51506 216.177 8.91189C210.861 14.2282 207.961 21.3165 207.961 28.8076C207.961 36.3793 210.861 43.4677 216.177 48.7839C221.655 54.2613 228.904 57 236.154 57ZM313.186 57C315.764 57 317.858 54.8252 317.858 52.3281V5.28716C317.858 2.70957 315.764 0.615277 313.186 0.615277C310.528 0.615277 308.434 2.70957 308.434 5.28716V37.4264L284.108 2.62902C283.222 1.34022 281.772 0.615277 280.322 0.615277C277.503 0.615277 275.569 2.87067 275.569 5.28716V52.3281C275.569 54.9057 277.664 57 280.241 57C282.819 57 284.994 54.9057 284.994 52.3281V20.1888L309.32 54.9863C310.206 56.2751 311.656 57 313.186 57Z" fill="white"/>
<path d="M48.3906 46.3675L46.0626 44.6215L44.6819 46.4625L46.1551 48.2304L48.3906 46.3675ZM41.4634 52.7309L43.7219 50.8959L42.0522 48.8409L39.8492 50.3096L41.4634 52.7309ZM43.5577 55.3085L41.2992 57.1435L41.3233 57.1732L41.3482 57.2023L43.5577 55.3085ZM50.2433 55.8723L48.3636 53.6508L48.3241 53.6843L48.2858 53.7191L50.2433 55.8723ZM50.8071 49.2672L53.0593 47.4245L53.051 47.4144L53.0427 47.4043L50.8071 49.2672ZM42.1078 38.8763L39.8643 40.7297L42.4631 43.8756L44.5908 40.3938L42.1078 38.8763ZM39.0469 35.1711L41.2904 33.3177L41.2794 33.3045L41.2683 33.2914L39.0469 35.1711ZM32.4418 34.6072L34.2397 36.8954L34.2623 36.8776L34.2845 36.8594L32.4418 34.6072ZM31.878 41.2123L29.6258 43.055L29.6324 43.0631L29.639 43.0711L31.878 41.2123ZM35.4222 45.4814L36.8214 48.0329L39.9144 46.3368L37.6611 43.6226L35.4222 45.4814ZM50.7186 48.1135C54.6984 42.8071 57.1808 36.0793 57.1808 28.8076H51.3608C51.3608 34.7461 49.3324 40.2618 46.0626 44.6215L50.7186 48.1135ZM57.1808 28.8076C57.1808 11.7659 43.8242 -2.29472 27.2061 -2.29472V3.52528C40.3914 3.52528 51.3608 14.7572 51.3608 28.8076H57.1808ZM27.2061 -2.29472C10.577 -2.29472 -2.68802 11.7774 -2.68802 28.8076H3.13198C3.13198 14.7457 14.0319 3.52528 27.2061 3.52528V-2.29472ZM-2.68802 28.8076C-2.68802 45.8379 10.577 59.91 27.2061 59.91V54.09C14.0319 54.09 3.13198 42.8696 3.13198 28.8076H-2.68802ZM27.2061 59.91C33.0154 59.91 38.4907 58.21 43.0776 55.1521L39.8492 50.3096C36.22 52.7291 31.8683 54.09 27.2061 54.09V59.91ZM39.2049 54.5659L41.2992 57.1435L45.8162 53.4734L43.7219 50.8959L39.2049 54.5659ZM41.3482 57.2023C42.8867 58.9971 45.0738 59.91 47.1824 59.91V54.09C46.7135 54.09 46.1618 53.8752 45.7671 53.4146L41.3482 57.2023ZM47.1824 59.91C48.7983 59.91 50.6744 59.4132 52.2008 58.0255L48.2858 53.7191C48.0401 53.9425 47.6608 54.09 47.1824 54.09V59.91ZM52.123 58.0938C53.8129 56.6638 54.8448 54.4867 54.8448 52.2476H49.0248C49.0248 52.7471 48.7679 53.3087 48.3636 53.6508L52.123 58.0938ZM54.8448 52.2476C54.8448 50.4475 54.1553 48.764 53.0593 47.4245L48.5549 51.11C48.9089 51.5426 49.0248 51.9534 49.0248 52.2476H54.8448ZM53.0427 47.4043L50.6262 44.5045L46.1551 48.2304L48.5716 51.1302L53.0427 47.4043ZM27.2061 44.6657C19.3208 44.6657 12.5563 37.7706 12.5563 28.8076H6.73629C6.73629 40.6265 15.7595 50.4857 27.2061 50.4857V44.6657ZM12.5563 28.8076C12.5563 19.8447 19.3208 12.9496 27.2061 12.9496V7.12958C15.7595 7.12958 6.73629 16.9888 6.73629 28.8076H12.5563ZM27.2061 12.9496C35.1803 12.9496 41.9365 19.8536 41.9365 28.8076H47.7565C47.7565 16.9799 38.7249 7.12958 27.2061 7.12958V12.9496ZM41.9365 28.8076C41.9365 32.0061 41.103 34.9399 39.6247 37.3589L44.5908 40.3938C46.6567 37.0133 47.7565 33.0197 47.7565 28.8076H41.9365ZM44.3513 37.023L41.2904 33.3177L36.8034 37.0244L39.8643 40.7297L44.3513 37.023ZM41.2683 33.2914C39.8384 31.6014 37.6613 30.5695 35.4222 30.5695V36.3895C35.9217 36.3895 36.4833 36.6464 36.8254 37.0507L41.2683 33.2914ZM35.4222 30.5695C33.6221 30.5695 31.9386 31.2591 30.5991 32.355L34.2845 36.8594C34.7172 36.5054 35.1279 36.3895 35.4222 36.3895V30.5695ZM30.644 32.319C28.7614 33.7982 27.8403 35.9583 27.8403 38.1514H33.6603C33.6603 37.6058 33.8668 37.1884 34.2397 36.8954L30.644 32.319ZM27.8403 38.1514C27.8403 39.9007 28.4951 41.673 29.6258 43.055L34.1302 39.3696C33.811 38.9794 33.6603 38.4964 33.6603 38.1514H27.8403ZM29.639 43.0711L33.1832 47.3402L37.6611 43.6226L34.117 39.3535L29.639 43.0711ZM34.0229 42.9299C31.951 44.0661 29.693 44.6657 27.2061 44.6657V50.4857C30.6799 50.4857 33.8993 49.6354 36.8214 48.0329L34.0229 42.9299ZM99.4572 35.9766L98.0734 33.4166L95.3525 34.8874L96.9863 37.5137L99.4572 35.9766ZM106.546 28.566L109.136 29.8926L109.142 29.88L109.148 29.8674L106.546 28.566ZM99.0545 2.87067L100.356 0.267883L100.346 0.263134L100.337 0.258453L99.0545 2.87067ZM81.8168 38.2319V35.3219H78.9068V38.2319H81.8168ZM89.7107 38.2319L92.177 36.6875L91.3219 35.3219H89.7107V38.2319ZM100.102 54.8252L97.6353 56.3696L97.6467 56.3879L97.6585 56.406L100.102 54.8252ZM106.546 56.2751L105.028 53.792L104.979 53.8219L104.931 53.8538L106.546 56.2751ZM108.076 49.8311L110.571 48.3339L110.559 48.3138L110.547 48.294L108.076 49.8311ZM81.8168 10.0396V7.12958H78.9068V10.0396H81.8168ZM94.8659 11.2478L96.1673 8.64504L94.8659 11.2478ZM98.0073 24.5385L95.4396 23.1691L95.4338 23.1802L98.0073 24.5385ZM81.8168 28.8076H78.9068V31.7176H81.8168V28.8076ZM100.841 38.5365C104.373 36.6274 107.194 33.6833 109.136 29.8926L103.956 27.2394C102.514 30.0538 100.502 32.1037 98.0734 33.4166L100.841 38.5365ZM109.148 29.8674C111.62 24.9246 111.711 20.0445 111.711 19.3833H105.891C105.891 19.6888 105.821 23.508 103.943 27.2646L109.148 29.8674ZM111.711 19.3833C111.711 10.7975 107.701 3.94044 100.356 0.267883L97.7531 5.47345C102.974 8.08377 105.891 12.8258 105.891 19.3833H111.711ZM100.337 0.258453C95.3309 -2.19902 90.5487 -2.29472 89.8718 -2.29472V3.52528C90.1615 3.52528 93.9176 3.59067 97.7721 5.48288L100.337 0.258453ZM89.8718 -2.29472H77.0644V3.52528H89.8718V-2.29472ZM77.0644 -2.29472C72.8797 -2.29472 69.4825 1.10242 69.4825 5.28716H75.3025C75.3025 4.31672 76.094 3.52528 77.0644 3.52528V-2.29472ZM69.4825 5.28716V52.3281H75.3025V5.28716H69.4825ZM69.4825 52.3281C69.4825 56.5129 72.8797 59.91 77.0644 59.91V54.09C76.094 54.09 75.3025 53.2986 75.3025 52.3281H69.4825ZM77.0644 59.91C81.1842 59.91 84.7268 56.577 84.7268 52.3281H78.9068C78.9068 53.2344 78.0998 54.09 77.0644 54.09V59.91ZM84.7268 52.3281V38.2319H78.9068V52.3281H84.7268ZM81.8168 41.1419H89.7107V35.3219H81.8168V41.1419ZM87.2444 39.7764L97.6353 56.3696L102.568 53.2807L92.177 36.6875L87.2444 39.7764ZM97.6585 56.406C99.0951 58.6264 101.558 59.91 104.129 59.91V54.09C103.478 54.09 102.88 53.7626 102.545 53.2443L97.6585 56.406ZM104.129 59.91C105.471 59.91 106.926 59.5188 108.16 58.6963L104.931 53.8538C104.715 53.9979 104.398 54.09 104.129 54.09V59.91ZM108.063 58.7581C110.384 57.3399 111.711 54.8655 111.711 52.3281H105.891C105.891 52.8516 105.607 53.4381 105.028 53.792L108.063 58.7581ZM111.711 52.3281C111.711 50.8577 111.295 49.5402 110.571 48.3339L105.581 51.3283C105.824 51.7329 105.891 52.0264 105.891 52.3281H111.711ZM110.547 48.294L101.928 34.4394L96.9863 37.5137L105.605 51.3682L110.547 48.294ZM81.8168 12.9496H89.8718V7.12958H81.8168V12.9496ZM89.8718 10.0396C89.8718 12.9496 89.8711 12.9496 89.8705 12.9496C89.8703 12.9496 89.8697 12.9496 89.8692 12.9496C89.8684 12.9496 89.8677 12.9496 89.8669 12.9496C89.8654 12.9496 89.8641 12.9496 89.8629 12.9496C89.8606 12.9496 89.8588 12.9496 89.8576 12.9495C89.8552 12.9495 89.8551 12.9495 89.8573 12.9495C89.8615 12.9496 89.8747 12.9498 89.896 12.9505C89.9388 12.9519 90.0138 12.9549 90.1161 12.9618C90.3219 12.9757 90.6309 13.0047 91.0041 13.0643C91.7697 13.1864 92.7072 13.422 93.5645 13.8506L96.1673 8.64504C94.6081 7.86545 93.0485 7.49686 91.9212 7.31697C91.348 7.2255 90.8615 7.17894 90.5085 7.15508C90.3314 7.14312 90.1862 7.13675 90.0786 7.13338C90.0247 7.13169 89.9801 7.13074 89.9454 7.13021C89.9281 7.12995 89.9132 7.12979 89.9009 7.1297C89.8948 7.12966 89.8893 7.12963 89.8844 7.12961C89.882 7.1296 89.8797 7.12959 89.8776 7.12959C89.8766 7.12959 89.8756 7.12959 89.8746 7.12959C89.8741 7.12959 89.8734 7.12958 89.8732 7.12958C89.8725 7.12958 89.8718 7.12958 89.8718 10.0396ZM93.5645 13.8506C94.6491 14.3929 95.3056 15.0382 95.7262 15.794C96.1645 16.5817 96.4667 17.7083 96.4667 19.3833H102.287C102.287 17.0309 101.864 14.855 100.812 12.9643C99.7424 11.042 98.1436 9.6332 96.1673 8.64504L93.5645 13.8506ZM96.4667 19.3833C96.4667 19.3336 96.4049 21.3593 95.4397 23.1691L100.575 25.9079C102.187 22.8848 102.287 19.7553 102.287 19.3833H96.4667ZM95.4338 23.1802C94.9113 24.1701 94.284 24.7836 93.5206 25.1854C92.7187 25.6075 91.5695 25.8976 89.8718 25.8976V31.7176C92.2015 31.7176 94.3549 31.3232 96.2313 30.3356C98.1462 29.3278 99.5729 27.8067 100.581 25.8968L95.4338 23.1802ZM89.8718 25.8976H81.8168V31.7176H89.8718V25.8976ZM84.7268 28.8076V10.0396H78.9068V28.8076H84.7268ZM145.469 21.8804L144.365 24.5726L144.497 24.6267L144.633 24.6676L145.469 21.8804ZM139.267 14.8726L136.358 14.7918L136.357 14.8321V14.8726H139.267ZM146.839 9.95903L147 7.05351L146.919 7.04903H146.839V9.95903ZM151.108 11.57L149.29 13.8424L149.342 13.8841L149.396 13.9235L151.108 11.57ZM157.713 10.6034L159.985 12.4213L157.713 10.6034ZM156.827 4.07891L158.645 1.80658L158.604 1.77402L158.562 1.74293L156.827 4.07891ZM147.161 0.534729L147.23 -2.37445L147.195 -2.37527H147.161V0.534729ZM135.401 4.15946L137.138 6.49396L137.163 6.47548L137.187 6.45648L135.401 4.15946ZM129.923 14.5504L127.015 14.4363L127.013 14.4933V14.5504H129.923ZM142.408 30.6603L143.71 28.0575L143.555 27.9801L143.392 27.9216L142.408 30.6603ZM142.731 30.8214L141.429 33.4242L141.667 33.5428L141.921 33.6166L142.731 30.8214ZM153.041 38.7152H155.951V38.6204L155.945 38.5259L153.041 38.7152ZM150.544 44.837L148.486 42.7793L150.544 44.837ZM143.294 47.4146L143.223 50.3237L143.259 50.3246H143.294V47.4146ZM135.964 42.7427L133.315 43.9469L133.318 43.9526L135.964 42.7427ZM129.682 40.4068L130.886 43.0559L130.935 43.0337L130.983 43.0096L129.682 40.4068ZM127.346 46.6897L129.983 45.4591L129.966 45.4234L129.948 45.3883L127.346 46.6897ZM142.972 56.8389L142.87 59.7471L142.921 59.7489H142.972V56.8389ZM157.31 51.3615L159.368 53.4192L159.368 53.4192L157.31 51.3615ZM162.385 38.2319H165.295V38.1687L165.292 38.1055L162.385 38.2319ZM146.574 19.1881C144.964 18.5278 143.853 18.0006 143.11 17.3479C142.528 16.8365 142.177 16.2624 142.177 15.1948H136.357C136.357 18.0741 137.536 20.1983 139.27 21.7208C140.842 23.1021 142.833 23.9442 144.365 24.5726L146.574 19.1881ZM142.177 15.1948V14.8726H136.357V15.1948H142.177ZM142.176 14.9534C142.185 14.6159 142.342 14.1819 143.002 13.7319C143.695 13.2585 144.845 12.869 146.355 12.869V7.04903C143.918 7.04903 141.565 7.66642 139.721 8.92486C137.843 10.2066 136.429 12.2294 136.358 14.7918L142.176 14.9534ZM146.355 12.869H146.839V7.04903H146.355V12.869ZM146.677 12.8645C147.567 12.914 148.588 13.2812 149.29 13.8424L152.926 9.2977C151.211 7.92567 149.01 7.16516 147 7.05351L146.677 12.8645ZM149.396 13.9235C150.859 14.987 152.451 15.3661 153.927 15.3661V9.54607C153.47 9.54607 153.129 9.44182 152.819 9.2166L149.396 13.9235ZM153.927 15.3661C156.274 15.3661 158.475 14.3096 159.985 12.4213L155.44 8.78556C155.018 9.31377 154.48 9.54607 153.927 9.54607V15.3661ZM159.985 12.4213C161.082 11.0508 161.589 9.34591 161.589 7.78419H155.769C155.769 8.15566 155.633 8.54508 155.44 8.78557L159.985 12.4213ZM161.589 7.78419C161.589 5.4914 160.512 3.3003 158.645 1.80658L155.009 6.35125C155.558 6.79071 155.769 7.3383 155.769 7.78419H161.589ZM158.562 1.74293C155.351 -0.642357 151.319 -2.2771 147.23 -2.37445L147.092 3.4439C149.769 3.50766 152.664 4.6116 155.091 6.4149L158.562 1.74293ZM147.161 -2.37527H146.436V3.44473H147.161V-2.37527ZM146.436 -2.37527C141.637 -2.37527 137.053 -0.812037 133.614 1.86245L137.187 6.45648C139.548 4.62018 142.858 3.44473 146.436 3.44473V-2.37527ZM133.663 1.82496C129.475 4.94201 127.21 9.47345 127.015 14.4363L132.831 14.6644C132.959 11.4112 134.399 8.53208 137.138 6.49396L133.663 1.82496ZM127.013 14.5504V15.1948H132.833V14.5504H127.013ZM127.013 15.1948C127.013 19.4191 128.249 23.2009 130.788 26.3538C133.298 29.4694 136.927 31.7834 141.425 33.3989L143.392 27.9216C139.593 26.5568 136.98 24.7628 135.321 22.7031C133.692 20.6807 132.833 18.2199 132.833 15.1948H127.013ZM141.107 33.2631L141.429 33.4242L144.032 28.2186L143.71 28.0575L141.107 33.2631ZM141.921 33.6166C143.195 33.9853 145.45 34.9182 147.363 36.1549C148.315 36.7704 149.07 37.3896 149.568 37.9593C150.084 38.5494 150.134 38.8635 150.137 38.9046L155.945 38.5259C155.827 36.7144 154.91 35.2261 153.949 34.1272C152.969 33.0079 151.736 32.0514 150.523 31.2673C148.106 29.7049 145.327 28.5435 143.54 28.0261L141.921 33.6166ZM150.131 38.7152V39.0374H155.951V38.7152H150.131ZM150.131 39.0374C150.131 40.3749 149.6 41.6659 148.486 42.7793L152.602 46.8947C154.71 44.7861 155.951 42.0496 155.951 39.0374H150.131ZM148.486 42.7793C147.432 43.8338 145.884 44.5046 143.697 44.5046V50.3246C147.149 50.3246 150.273 49.2233 152.602 46.8947L148.486 42.7793ZM143.697 44.5046H143.294V50.3246H143.697V44.5046ZM143.365 44.5055C141.112 44.4505 139.411 43.2825 138.611 41.5329L133.318 43.9526C135.096 47.8414 138.872 50.2176 143.223 50.3237L143.365 44.5055ZM138.614 41.5386C137.284 38.6133 134.397 37.094 131.615 37.094V42.914C132.377 42.914 133.034 43.3279 133.315 43.9469L138.614 41.5386ZM131.615 37.094C130.722 37.094 129.578 37.2051 128.38 37.804L130.983 43.0096C131.074 42.9641 131.219 42.914 131.615 42.914V37.094ZM128.477 37.7576C125.6 39.0653 124.033 41.837 124.033 44.6759H129.853C129.853 43.9706 130.219 43.3592 130.886 43.0559L128.477 37.7576ZM124.033 44.6759C124.033 45.5168 124.129 46.7636 124.743 47.991L129.948 45.3883C129.938 45.3684 129.912 45.3056 129.889 45.1771C129.866 45.0473 129.853 44.8823 129.853 44.6759H124.033ZM124.709 47.9202C128.007 54.9888 134.971 59.4683 142.87 59.7471L143.075 53.9307C137.28 53.7262 132.322 50.473 129.983 45.4591L124.709 47.9202ZM142.972 59.7489H143.617V53.9289H142.972V59.7489ZM143.617 59.7489C149.653 59.7489 155.242 57.5448 159.368 53.4192L155.252 49.3038C152.29 52.2666 148.213 53.9289 143.617 53.9289V59.7489ZM159.368 53.4192C163.137 49.6496 165.295 44.4784 165.295 39.0374H159.475C159.475 42.9402 157.927 46.6295 155.252 49.3038L159.368 53.4192ZM165.295 39.0374V38.2319H159.475V39.0374H165.295ZM165.292 38.1055C164.992 31.2097 160.483 26.5823 156.279 23.747C152.046 20.892 147.604 19.4825 146.305 19.0931L144.633 24.6676C145.752 25.0032 149.525 26.2116 153.025 28.5721C156.554 30.9524 159.294 34.1384 159.477 38.3583L165.292 38.1055ZM185.142 59.91C189.327 59.91 192.724 56.5129 192.724 52.3281H186.904C186.904 53.2986 186.113 54.09 185.142 54.09V59.91ZM192.724 52.3281V5.28716H186.904V52.3281H192.724ZM192.724 5.28716C192.724 1.10242 189.327 -2.29472 185.142 -2.29472V3.52528C186.113 3.52528 186.904 4.31672 186.904 5.28716H192.724ZM185.142 -2.29472C180.958 -2.29472 177.561 1.10242 177.561 5.28716H183.381C183.381 4.31672 184.172 3.52528 185.142 3.52528V-2.29472ZM177.561 5.28716V52.3281H183.381V5.28716H177.561ZM177.561 52.3281C177.561 56.5129 180.958 59.91 185.142 59.91V54.09C184.172 54.09 183.381 53.2986 183.381 52.3281H177.561ZM256.049 48.7839L258.107 50.8416L256.049 48.7839ZM248.075 33.4795H250.985V30.5695H248.075V33.4795ZM248.075 43.3871L249.912 45.644L250.985 44.7706V43.3871H248.075ZM222.863 42.0983L224.943 40.0634L224.932 40.0519L224.921 40.0406L222.863 42.0983ZM222.863 15.517L220.805 13.4593V13.4593L222.863 15.517ZM249.444 15.517L251.589 13.5506L251.547 13.504L251.502 13.4593L249.444 15.517ZM256.049 15.517L253.992 13.4593V13.4593L256.049 15.517ZM256.13 8.91189L254.072 10.9696V10.9696L256.13 8.91189ZM216.177 8.91189L218.235 10.9696L218.243 10.9618L218.25 10.954L216.177 8.91189ZM216.177 48.7839L214.12 50.8416L216.177 48.7839ZM236.154 59.91C244.056 59.91 252.057 56.8915 258.107 50.8416L253.992 46.7263C249.087 51.6311 242.59 54.09 236.154 54.09V59.91ZM258.107 50.8416C259.566 49.3829 260.329 47.4225 260.329 45.4009H254.509C254.509 45.9568 254.305 46.4129 253.992 46.7263L258.107 50.8416ZM260.329 45.4009V28.8076H254.509V45.4009H260.329ZM260.329 28.8076C260.329 24.6229 256.932 21.2258 252.747 21.2258V27.0458C253.717 27.0458 254.509 27.8372 254.509 28.8076H260.329ZM252.747 21.2258H236.315V27.0458H252.747V21.2258ZM236.315 21.2258C232.195 21.2258 228.652 24.5587 228.652 28.8076H234.472C234.472 27.9014 235.279 27.0458 236.315 27.0458V21.2258ZM228.652 28.8076C228.652 33.0565 232.195 36.3895 236.315 36.3895V30.5695C235.279 30.5695 234.472 29.7139 234.472 28.8076H228.652ZM236.315 36.3895H248.075V30.5695H236.315V36.3895ZM245.165 33.4795V43.3871H250.985V33.4795H245.165ZM246.238 41.1302C243.295 43.5258 239.756 44.7462 236.154 44.7462V50.5662C241.09 50.5662 245.928 48.8869 249.912 45.644L246.238 41.1302ZM236.154 44.7462C232.061 44.7462 227.991 43.1792 224.943 40.0634L220.783 44.1333C224.984 48.428 230.581 50.5662 236.154 50.5662V44.7462ZM224.921 40.0406C221.908 37.0284 220.215 33.0106 220.215 28.8076H214.395C214.395 34.5928 216.729 40.0799 220.805 44.156L224.921 40.0406ZM220.215 28.8076C220.215 24.6047 221.908 20.5869 224.921 17.5746L220.805 13.4593C216.729 17.5354 214.395 23.0225 214.395 28.8076H220.215ZM224.921 17.5746C227.915 14.5804 231.845 12.9496 236.154 12.9496V7.12958C230.313 7.12958 224.899 9.36516 220.805 13.4593L224.921 17.5746ZM236.154 12.9496C240.389 12.9496 244.397 14.585 247.387 17.5746L251.502 13.4593C247.403 9.36051 241.907 7.12958 236.154 7.12958V12.9496ZM247.299 17.4833C248.846 19.1707 250.901 19.7963 252.747 19.7963V13.9763C252.177 13.9763 251.815 13.7964 251.589 13.5506L247.299 17.4833ZM252.747 19.7963C254.675 19.7963 256.559 19.1226 258.107 17.5746L253.992 13.4593C253.607 13.8445 253.235 13.9763 252.747 13.9763V19.7963ZM258.107 17.5746C259.69 15.9921 260.329 14.0086 260.329 12.1339H254.509C254.509 12.6756 254.342 13.1086 253.992 13.4593L258.107 17.5746ZM260.329 12.1339C260.329 10.2478 259.682 8.34903 258.188 6.8542L254.072 10.9696C254.35 11.2468 254.509 11.6034 254.509 12.1339H260.329ZM258.188 6.85421C252.244 0.910326 244.415 -2.29472 236.154 -2.29472V3.52528C242.875 3.52528 249.223 6.1198 254.072 10.9696L258.188 6.85421ZM236.154 -2.29472C227.82 -2.29472 219.98 0.905151 214.104 6.86974L218.25 10.954C223.007 6.12498 229.344 3.52528 236.154 3.52528V-2.29472ZM214.12 6.85421C208.252 12.722 205.051 20.5529 205.051 28.8076H210.871C210.871 22.0801 213.47 15.7344 218.235 10.9696L214.12 6.85421ZM205.051 28.8076C205.051 37.1385 208.249 44.9708 214.12 50.8416L218.235 46.7263C213.473 41.9646 210.871 35.6201 210.871 28.8076H205.051ZM214.12 50.8416C220.173 56.8945 228.176 59.91 236.154 59.91V54.09C229.633 54.09 223.137 51.6281 218.235 46.7263L214.12 50.8416ZM308.434 37.4264L306.049 39.0937L311.344 46.668V37.4264H308.434ZM284.108 2.62902L281.71 4.27762L281.716 4.28699L281.723 4.29631L284.108 2.62902ZM284.994 20.1888L287.379 18.5215L282.084 10.9472V20.1888H284.994ZM309.32 54.9863L311.718 53.3377L311.711 53.3283L311.705 53.319L309.32 54.9863ZM313.186 59.91C317.403 59.91 320.768 56.3997 320.768 52.3281H314.948C314.948 53.2506 314.124 54.09 313.186 54.09V59.91ZM320.768 52.3281V5.28716H314.948V52.3281H320.768ZM320.768 5.28716C320.768 1.10242 317.371 -2.29472 313.186 -2.29472V3.52528C314.157 3.52528 314.948 4.31671 314.948 5.28716H320.768ZM313.186 -2.29472C308.953 -2.29472 305.524 1.07005 305.524 5.28716H311.344C311.344 4.34909 312.103 3.52528 313.186 3.52528V-2.29472ZM305.524 5.28716V37.4264H311.344V5.28716H305.524ZM310.819 35.7592L286.493 0.961727L281.723 4.29631L306.049 39.0937L310.819 35.7592ZM286.506 0.980423C285.071 -1.10637 282.72 -2.29472 280.322 -2.29472V3.52528C280.824 3.52528 281.372 3.78681 281.71 4.27762L286.506 0.980423ZM280.322 -2.29472C275.799 -2.29472 272.659 1.36177 272.659 5.28716H278.479C278.479 4.37956 279.206 3.52528 280.322 3.52528V-2.29472ZM272.659 5.28716V52.3281H278.479V5.28716H272.659ZM272.659 52.3281C272.659 56.5129 276.057 59.91 280.241 59.91V54.09C279.271 54.09 278.479 53.2986 278.479 52.3281H272.659ZM280.241 59.91C284.361 59.91 287.904 56.577 287.904 52.3281H282.084C282.084 53.2344 281.277 54.09 280.241 54.09V59.91ZM287.904 52.3281V20.1888H282.084V52.3281H287.904ZM282.609 21.8561L306.935 56.6536L311.705 53.319L287.379 18.5215L282.609 21.8561ZM306.922 56.6349C308.372 58.744 310.735 59.91 313.186 59.91V54.09C312.576 54.09 312.04 53.8061 311.718 53.3377L306.922 56.6349Z" fill="white"/>
</svg>
